# xmcd
#
# Track frame offsets:
#	150
#	12620
#	26735
#	38205
#	49487
#	61782
#	71092
#	83520
#	92265
#	104165
#	114312
#	125640
#	136610
#	148272
#	158762
#	169852
#	179512
#	188635
#	198745
#	210320
#	220972
#	232330
#	241317
#	252135
#	263125
#	272052
#	283100
#	293390
#	302375
#	310787
#	320635
#	330945
#	342365
#
# Disc length: 4751 seconds
#
# Revision: 1
# Processed by: cddbd v1.5.2PL0 Copyright (c) Steve Scherf et al.
# Submitted via: EasyCDDAExtractor 7.0.3.1
#
DISCID=e9128d21
DTITLE=Skeets McDonald - Heart Breakin' Mama
DYEAR=2008
DGENRE=Country
TTITLE0=The Southland Boogie
TTITLE1=The Tattooed Lady
TTITLE2=Scoot, Git and Be Gone
TTITLE3=Fuss and Fight
TTITLE4=Don't Let the Stars Get In Your Eyes
TTITLE5=Hi Diddle Dee (My Way)
TTITLE6=Let Me Know
TTITLE7=Baby, I'm Countin
TTITLE8=Remember You're Mine
TTITLE9=Look Who's Cryin Now
TTITLE10=Your Love is Like A Faucet
TTITLE11=Smoke Comes Out My Chimney Just the Same
TTITLE12=You Talk About Me, I'll Talk About You
TTITLE13=I Got A New Field To Plow
TTITLE14=It'll Take Me A Long, Long Time
TTITLE15=Don't Push Me Too Far
TTITLE16=You Oughta See Grandma Rock 
TTITLE17=You Gotta Be My Baby
TTITLE18=You Better Not Go
TTITLE19=Heart Breakin' Mama
TTITLE20=Keep Her Off Your Mind
TTITLE21=Fingertips
TTITLE22=Fort Worth Jail
TTITLE23=Gone and Left Me Blues
TTITLE24=You're There
TTITLE25=Tomorrow Never Comes
TTITLE26=What A LOnesome Life It's Been
TTITLE27=Baby Wait
TTITLE28=What Am I Doing Here
TTITLE29=Cheek to Cheek With the Blues
TTITLE30=Everglades
TTITLE31=Same Old Town
TTITLE32=Lost Highway
EXTD=
EXTT0=
EXTT1=
EXTT2=
EXTT3=
EXTT4=
EXTT5=
EXTT6=
EXTT7=
EXTT8=
EXTT9=
EXTT10=
EXTT11=
EXTT12=
EXTT13=
EXTT14=
EXTT15=
EXTT16=
EXTT17=
EXTT18=
EXTT19=
EXTT20=
EXTT21=
EXTT22=
EXTT23=
EXTT24=
EXTT25=
EXTT26=
EXTT27=
EXTT28=
EXTT29=
EXTT30=
EXTT31=
EXTT32=
PLAYORDER=
